<?xml version="1.0" standalone="no"?>
<svg xmlns="http://www.w3.org/2000/svg" viewBox="0 0 503.71026596269706 402.67510971269706" width="503.71026596269706" height="402.67510971269706"><rect fill="none" stroke="#6590da" stroke-width="4" width="499.71026596269706" height="398.67510971269706" x="2" y="2"></rect><g fill="#0b005d" color="#0b005d" transform="translate(113.036 12) scale(3.7867511)"><svg width="100.0" height="100.0" x="0.0" y="0.0" viewBox="0 0 100 100"><path fill="currentColor" d="M72.502,53.354c0-4.787,3.88-8.667,8.667-8.667c4.788,0,8.67,3.881,8.67,8.667  c0,4.787-3.882,8.668-8.67,8.668C76.382,62.021,72.502,58.141,72.502,53.354z M76.704,57.953c-0.113-0.098-0.25-0.114-0.322-0.033  c-0.079,0.087-0.049,0.266,0.062,0.396c1.207,1.436,2.871,2.324,4.707,2.33c1.834-0.006,3.498-0.896,4.703-2.33  c0.111-0.131,0.143-0.311,0.062-0.396c-0.07-0.081-0.208-0.062-0.323,0.033c-1.212,1.104-2.758,1.766-4.446,1.77  C79.462,59.719,77.917,59.057,76.704,57.953z M69.303,53.229c-0.881-0.013-1.771-0.018-2.668-0.018  c-6.992,0-13.527,0.406-19.084,1.114c6.077-0.247,13.713-0.293,21.76,0.317c-0.02-0.25-0.025-0.502-0.025-0.76  C69.284,53.665,69.289,53.447,69.303,53.229z M93.477,52.841c-2.195,2.319,0.609,3.66-0.283,3.813h-2.916  c0.373-1.029,0.576-2.141,0.576-3.301c0-5.349-4.334-9.685-9.685-9.685c-5.349,0-9.685,4.336-9.685,9.685  c0,1.453,0.32,2.832,0.895,4.067c-19.645-1.924-37.702,0.371-37.702,0.371l-8.217,1.692c1.367-1.672,2.187-3.808,2.187-6.131  c0-5.35-4.335-9.686-9.683-9.686c-5.349,0-9.685,4.336-9.685,9.686c0,2.135,0.691,4.107,1.863,5.709  c-4.879-0.261-8.849-0.553-10.919-1.795c-1.306-0.766,4.938-0.703,0.177-9.952c6.175-4.294,13.646-5.86,22.963-5.86  c3.699-0.146,6.614-0.762,9.255-1.573c3.679-1.399,7.489-2.793,9.773-3.589c13.003-4.529,39.9,1.622,57.266,5.717l-0.142,0.604  c-0.011,0.048-0.021,0.111-0.043,0.188c-17.578-4.146-44.318-10.137-56.626-5.339c-3.291,1.278-6.469,2.616-11.126,4.479  c7.314,0,28.246,0.049,28.246,0.049c3.854,0,5.079-2.151,5.839-2.138C81.202,40.11,95.93,42.3,99.46,42.858  C99.135,44.213,97.663,49.008,93.477,52.841z M14.498,57.953c-0.113-0.098-0.251-0.114-0.322-0.033  c-0.079,0.087-0.048,0.266,0.062,0.396c1.207,1.436,2.871,2.324,4.708,2.33c1.831-0.006,3.495-0.896,4.702-2.33  c0.111-0.131,0.143-0.311,0.062-0.396c-0.072-0.081-0.209-0.062-0.322,0.033c-1.213,1.104-2.758,1.766-4.447,1.77  C17.256,59.719,15.712,59.057,14.498,57.953z M10.296,53.354c0-4.787,3.881-8.667,8.668-8.667s8.668,3.881,8.668,8.667  c0,4.787-3.881,8.668-8.668,8.668S10.296,58.141,10.296,53.354z"></path></svg></g><path fill="#0b005d" fill-rule="nonzero" d="M13.98 0L13.98 0Q17.64 0 20.21 1.27L20.21 1.27L20.21 7.25L20.18 7.29Q19.08 5.61 15.57 5.06L15.57 5.06Q14.53 4.88 12.95 4.88Q11.37 4.88 9.84 5.48Q8.32 6.07 7.34 7.17L7.34 7.17Q5.45 9.30 5.45 13.24L5.45 13.24Q5.45 17.83 7.85 20.08L7.85 20.08Q9.84 21.95 13.13 21.95L13.13 21.95Q16.84 21.95 19.14 20.37L19.14 20.37Q19.98 19.80 20.57 18.96L20.57 18.96L20.63 19.00L20.63 24.47Q17.64 26.95 12.58 26.95L12.58 26.95Q6.62 26.95 3.24 23.16L3.24 23.16Q0 19.55 0 13.59L0 13.59Q0 7.29 3.55 3.65L3.55 3.65Q7.15 0 13.98 0Z" transform="translate(12 12) scale(4.172)"></path><path fill="#0b005d" fill-rule="nonzero" d="M7.30 20.41L5.47 26.19Q3.79 26.04 1.54 26.04L1.54 26.04L0 26.04L8.50 2.23Q9.06 0.63 9.06 0.36Q9.06 0.10 9.04 0.04L9.04 0.04L9.06 0Q10.33 0.06 11.76 0.06L11.76 0.06Q12.93 0.06 14.57 0.02L14.57 0.02L14.59 0.06Q14.55 0.14 14.55 0.27L14.55 0.27Q14.55 0.64 15.14 2.25L15.14 2.25L23.81 26.09Q23.42 26.07 22.89 26.07L22.89 26.07Q22.89 26.07 21.88 26.04L21.88 26.04Q21.39 26.04 21.00 26.04L21.00 26.04L17.97 26.04L16.13 20.41L7.30 20.41ZM8.79 15.72L14.61 15.72L11.66 6.64L8.79 15.72Z" transform="translate(12 132.433) scale(3.614)"></path><path fill="#0b005d" fill-rule="nonzero" d="M12.93 26.62L8.40 16.37Q7.81 16.41 7.15 16.41Q6.48 16.41 5.18 16.31L5.18 16.31L5.18 26.46L0 26.46L0 0.35Q2.73 0 6.72 0L6.72 0Q12.15 0 14.81 2.00Q17.48 4.00 17.48 8.18L17.48 8.18Q17.48 11.43 15.04 13.73L15.04 13.73Q14.24 14.47 13.20 15.02L13.20 15.02L17.19 23.42Q18.36 26.02 18.98 26.50L18.98 26.50L18.89 26.60Q16.99 26.29 12.93 26.62L12.93 26.62ZM7.09 4.61L7.09 4.61Q6.09 4.61 5.18 4.71L5.18 4.71L5.18 12.17Q6.13 12.30 7.42 12.30Q8.71 12.30 9.59 12.08Q10.47 11.86 11.11 11.39L11.11 11.39Q12.50 10.35 12.50 8.28Q12.50 6.21 11.05 5.37L11.05 5.37Q9.71 4.61 7.09 4.61Z" transform="translate(12 235.079) scale(4.532)"></path><path fill="#0b005d" fill-rule="nonzero" d="M5.10 26.46L0 26.46Q0.12 25.80 0.12 25.02L0.12 25.02L0.12 0.49L4.02 0.49L14.38 16.78L14.38 1.82Q14.38 0.74 14.18 0.49L14.18 0.49L19.45 0.49Q19.36 1.27 19.36 2.21L19.36 2.21L19.36 26.46L15.29 26.46L5.10 10.82L5.10 26.46ZM28.50 23.38Q26.72 21.68 25.69 19.30Q24.67 16.91 24.67 14.07Q24.67 11.23 25.63 8.69Q26.58 6.15 28.36 4.22Q30.14 2.29 32.66 1.14Q35.18 0 38.30 0L38.30 0Q43.69 0 47.38 3.40L47.38 3.40Q51.33 7.03 51.33 13.20L51.33 13.20Q51.33 19.18 47.27 23.14L47.27 23.14Q44.77 25.59 41.31 26.50L41.31 26.50Q39.61 26.95 37.33 26.95Q35.06 26.95 32.67 26.02Q30.27 25.08 28.50 23.38ZM30.10 13.81L30.10 13.81Q30.10 15.63 30.70 17.15Q31.31 18.67 32.38 19.77L32.38 19.77Q34.67 22.07 38.26 22.07L38.26 22.07Q41.68 22.07 43.75 19.86L43.75 19.86Q45.86 17.58 45.86 13.63L45.86 13.63Q45.86 9.92 43.85 7.44L43.85 7.44Q41.68 4.79 37.91 4.79L37.91 4.79Q34.26 4.79 32.11 7.48L32.11 7.48Q30.10 10 30.10 13.81ZM65.68 26.48L65.64 26.54Q65.06 26.46 63.65 26.46L63.65 26.46L61.39 26.46Q60.72 26.46 60.29 26.50L60.29 26.50L60.27 26.46Q60.35 26.33 60.35 26.15Q60.35 25.98 60.32 25.78Q60.29 25.59 60.17 25.08Q60.04 24.57 59.79 23.61L59.79 23.61L53.14 0.41Q54.39 0.49 56.17 0.49Q57.95 0.49 58.48 0.33L58.48 0.33L63.09 18.01L67.58 0.41Q67.87 0.43 68.11 0.45L68.11 0.45L68.54 0.45Q69.18 0.49 70.16 0.49Q71.13 0.49 72.17 0.33L72.17 0.33L76.74 18.01L80.66 0.41Q81.84 0.49 83.73 0.49Q85.63 0.49 86.04 0.33L86.04 0.33L80.41 20.94Q79.34 24.49 79.28 25.16Q79.22 25.82 79.22 26.07Q79.22 26.33 79.30 26.48L79.30 26.48L79.26 26.54Q78.63 26.46 77.29 26.46L77.29 26.46Q76.11 26.46 75.16 26.46Q74.20 26.46 73.77 26.50L73.77 26.50L73.75 26.46Q73.83 26.33 73.83 26.15Q73.83 25.98 73.81 25.80Q73.79 25.63 73.70 25.13Q73.61 24.63 73.42 23.65L73.42 23.65L72.89 21.00L69.69 8.83L66.64 20.94Q65.70 24.67 65.66 25.23L65.66 25.23Q65.59 26.31 65.68 26.48L65.68 26.48Z" transform="translate(12 363.722) scale(1)"></path></svg>